<?xml version="1.0" encoding="UTF-8" standalone="no"?>
<!-- Created with Inkscape (http://www.inkscape.org/) -->

<svg
   xmlns:dc="http://purl.org/dc/elements/1.1/"
   xmlns:cc="http://creativecommons.org/ns#"
   xmlns:rdf="http://www.w3.org/1999/02/22-rdf-syntax-ns#"
   xmlns:svg="http://www.w3.org/2000/svg"
   xmlns="http://www.w3.org/2000/svg"
   xmlns:sodipodi="http://sodipodi.sourceforge.net/DTD/sodipodi-0.dtd"
   xmlns:inkscape="http://www.inkscape.org/namespaces/inkscape"
   width="800px"
   height="600px"
   id="svg7175"
   version="1.1"
   inkscape:version="0.48.5 r10040"
   sodipodi:docname="trinkets.svg"
   inkscape:export-filename="G:\Downloads\trinkets.png"
   inkscape:export-xdpi="90"
   inkscape:export-ydpi="90">
  <defs
     id="defs7177">
    <inkscape:path-effect
       effect="spiro"
       id="path-effect9924"
       is_visible="true" />
    <inkscape:path-effect
       effect="spiro"
       id="path-effect9920"
       is_visible="true" />
    <inkscape:path-effect
       effect="spiro"
       id="path-effect9916"
       is_visible="true" />
    <inkscape:path-effect
       effect="skeletal"
       id="path-effect9910"
       is_visible="true"
       pattern="M 0,5 C 0,2.24 2.24,0 5,0 7.76,0 10,2.24 10,5 10,7.76 7.76,10 5,10 2.24,10 0,7.76 0,5 z"
       copytype="single_stretched"
       prop_scale="1"
       scale_y_rel="false"
       spacing="0"
       normal_offset="0"
       tang_offset="0"
       prop_units="false"
       vertical_pattern="false"
       fuse_tolerance="0" />
  </defs>
  <sodipodi:namedview
     id="base"
     pagecolor="#ffffff"
     bordercolor="#666666"
     borderopacity="1.0"
     inkscape:pageopacity="0.0"
     inkscape:pageshadow="2"
     inkscape:zoom="4.8"
     inkscape:cx="182.98546"
     inkscape:cy="420.73024"
     inkscape:current-layer="layer1"
     inkscape:document-units="px"
     showgrid="true"
     inkscape:window-width="1920"
     inkscape:window-height="1018"
     inkscape:window-x="-8"
     inkscape:window-y="-8"
     inkscape:window-maximized="1"
     showguides="false">
    <inkscape:grid
       type="xygrid"
       id="grid7183"
       empspacing="5"
       visible="true"
       enabled="true"
       snapvisiblegridlinesonly="true" />
  </sodipodi:namedview>
  <metadata
     id="metadata7180">
    <rdf:RDF>
      <cc:Work
         rdf:about="">
        <dc:format>image/svg+xml</dc:format>
        <dc:type
           rdf:resource="http://purl.org/dc/dcmitype/StillImage" />
        <dc:title></dc:title>
      </cc:Work>
    </rdf:RDF>
  </metadata>
  <g
     id="layer1"
     inkscape:label="Layer 1"
     inkscape:groupmode="layer">
    <rect
       style="fill:#808080;fill-opacity:0.50196078;stroke:none;display:inline"
       id="rect12148-8-8-8"
       width="30"
       height="36"
       x="170"
       y="180" />
    <rect
       style="fill:#808080;fill-opacity:0.50196078;stroke:none;display:inline"
       id="rect12148-8-8-9"
       width="30"
       height="36"
       x="60"
       y="123.99999" />
    <rect
       style="fill:#808080;fill-opacity:0.50196078;stroke:none;display:inline"
       id="rect12148-8-0"
       width="30"
       height="36"
       x="311"
       y="123.99999" />
    <rect
       style="fill:#808080;fill-opacity:0.50196078;stroke:none;display:inline"
       id="rect12148-8-5"
       width="30"
       height="36"
       x="275"
       y="123.99999" />
    <rect
       style="fill:#808080;fill-opacity:0.50196078;stroke:none;display:inline"
       id="rect12148-8-6"
       width="30"
       height="36"
       x="240"
       y="124" />
    <rect
       style="fill:#808080;fill-opacity:0.50196078;stroke:none;display:inline"
       id="rect12148-8"
       width="30"
       height="36"
       x="205"
       y="124" />
    <rect
       style="fill:#808080;fill-opacity:0.50196078;stroke:none;display:inline"
       id="rect12148-8-8"
       width="30"
       height="36"
       x="170"
       y="124" />
    <path
       transform="matrix(0.05204759,0,0,0.04163808,166.26287,124.67582)"
       d="m 440,220 a 80,100 0 1 1 -160,0 80,100 0 1 1 160,0 z"
       sodipodi:ry="100"
       sodipodi:rx="80"
       sodipodi:cy="220"
       sodipodi:cx="360"
       id="path3795-9"
       style="fill:#000000;fill-opacity:1;stroke:none;display:inline"
       sodipodi:type="arc" />
    <path
       inkscape:connector-curvature="0"
       id="path3790-40-1"
       d="m 181.23485,131.93266 c -0.95801,0.96138 -1.55035,2.28739 -1.55035,3.75185 0,2.93567 2.37983,5.3155 5.3155,5.3155 2.93566,0 5.31549,-2.37983 5.31549,-5.3155 0,-1.46446 -0.59233,-2.79047 -1.55035,-3.75185 0.42119,0.67785 0.66444,1.47762 0.66444,2.33439 0,2.44639 -1.98319,4.42958 -4.42958,4.42958 -2.44639,0 -4.42958,-1.98319 -4.42958,-4.42958 0,-0.85677 0.24324,-1.65654 0.66444,-2.33439 z"
       style="fill:#000000;fill-opacity:1;stroke:none;display:inline" />
    <text
       xml:space="preserve"
       style="font-size:14.98679829px;font-style:normal;font-variant:normal;font-weight:normal;font-stretch:normal;text-align:start;line-height:125%;letter-spacing:0px;word-spacing:0px;writing-mode:lr-tb;text-anchor:start;fill:#000000;fill-opacity:1;stroke:none;font-family:Source Code Pro;-inkscape-font-specification:Source Code Pro"
       x="216"
       y="175"
       id="text9822"
       sodipodi:linespacing="125%"><tspan
         sodipodi:role="line"
         id="tspan9824"
         x="216"
         y="175">B</tspan></text>
    <text
       xml:space="preserve"
       style="font-size:14.98679829px;font-style:normal;font-variant:normal;font-weight:normal;font-stretch:normal;text-align:start;line-height:125%;letter-spacing:0px;word-spacing:0px;writing-mode:lr-tb;text-anchor:start;fill:#000000;fill-opacity:1;stroke:none;font-family:Source Code Pro;-inkscape-font-specification:Source Code Pro"
       x="181"
       y="175"
       id="text9822-1"
       sodipodi:linespacing="125%"><tspan
         sodipodi:role="line"
         id="tspan9824-1"
         x="181"
         y="175">A</tspan></text>
    <path
       style="fill:none;stroke:none"
       d="m 42.924841,126.09416 c -1.668295,-0.11282 -3.688611,-0.6681 -5.222524,-1.43539 -1.176286,-0.58841 -2.019191,-1.17178 -3.063883,-2.12051 -0.289628,-0.26303 -0.306415,-0.26654 0.697536,0.14585 4.933567,2.02653 12.44771,2.0083 17.409633,-0.0422 0.428081,-0.1769 0.788333,-0.31164 0.800559,-0.29942 0.04727,0.0473 -1.198888,1.06179 -1.794542,1.46097 -2.520748,1.68927 -5.66283,2.50471 -8.826779,2.29074 z"
       id="path11615"
       inkscape:connector-curvature="0" />
    <path
       style="fill:none;stroke:none"
       d="m 42.175399,127.02247 c -2.110302,-0.24589 -4.574821,-1.11721 -6.256995,-2.21214 -1.698147,-1.10533 -3.137837,-2.58061 -4.068786,-4.16937 l -0.225891,-0.38551 0.163114,-0.0838 c 0.08971,-0.0461 0.250954,-0.16569 0.358314,-0.26572 l 0.1952,-0.18188 0.551779,0.43848 c 1.316379,1.04608 2.830736,1.73965 5.024034,2.30098 3.816582,0.97679 8.328076,0.97595 12.167192,-0.002 2.22842,-0.56781 3.934323,-1.37905 5.210692,-2.47795 l 0.363127,-0.31263 0.270941,0.24478 c 0.149018,0.13463 0.312696,0.2587 0.36373,0.27571 0.114587,0.0382 -0.341454,0.80147 -0.982271,1.64403 -2.140187,2.81397 -5.719463,4.7478 -9.613436,5.19402 -0.745104,0.0854 -2.763482,0.0815 -3.520744,-0.007 l 0,0 z m 3.080247,-0.87972 c 3.281687,-0.32923 6.070699,-1.54686 8.128483,-3.54874 l 0.589256,-0.57325 -0.73657,0.32202 c -1.363422,0.59608 -2.471332,0.94522 -4.007667,1.26295 -4.938273,1.02129 -10.646778,0.50756 -14.610894,-1.31488 -0.314933,-0.14479 -0.546953,-0.22091 -0.515598,-0.16918 0.03135,0.0517 0.33291,0.34659 0.670125,0.65521 2.661553,2.43591 6.730374,3.74234 10.482865,3.36587 l 0,0 z"
       id="path11617"
       inkscape:connector-curvature="0" />
    <text
       xml:space="preserve"
       style="font-size:14.98679829px;font-style:normal;font-variant:normal;font-weight:normal;font-stretch:normal;text-align:start;line-height:125%;letter-spacing:0px;word-spacing:0px;writing-mode:lr-tb;text-anchor:start;fill:#000000;fill-opacity:1;stroke:none;font-family:Source Code Pro;-inkscape-font-specification:Source Code Pro"
       x="251"
       y="175"
       id="text9822-8"
       sodipodi:linespacing="125%"><tspan
         sodipodi:role="line"
         id="tspan9824-9"
         x="251"
         y="175">C</tspan></text>
    <text
       xml:space="preserve"
       style="font-size:14.98679829px;font-style:normal;font-variant:normal;font-weight:normal;font-stretch:normal;text-align:start;line-height:125%;letter-spacing:0px;word-spacing:0px;writing-mode:lr-tb;text-anchor:start;fill:#000000;fill-opacity:1;stroke:none;font-family:Source Code Pro;-inkscape-font-specification:Source Code Pro"
       x="288"
       y="175"
       id="text9822-8-1"
       sodipodi:linespacing="125%"><tspan
         sodipodi:role="line"
         id="tspan9824-9-2"
         x="288"
         y="175">D</tspan></text>
    <path
       inkscape:connector-curvature="0"
       style="fill:#000000;fill-opacity:1;fill-rule:nonzero;stroke:none"
       d="M 286.8125,140.8125 C 287.52267,142.34743 288,145.88558 288,150 c 0,5.52285 -0.89543,10 -2,10 l 8,0 c -1.10457,0 -2,-4.47715 -2,-10 0,-4.11442 0.47733,-7.65257 1.1875,-9.1875 C 292.14176,140.93355 291.06941,141 290,141 c -1.06941,0 -2.14176,-0.0665 -3.1875,-0.1875 z"
       id="rect9726-5-7-2-5-2" />
    <path
       style="fill:#000000;fill-opacity:1;fill-rule:nonzero;stroke:none"
       d="M 277.8125,137.1875 C 281.61862,139.01301 285.72234,140 290,140 c 4.27766,0 8.38138,-0.98699 12.1875,-2.8125 C 298.22631,137.71853 294.15711,138 290,138 c -4.15711,0 -8.22631,-0.28147 -12.1875,-0.8125 z"
       id="path11783-4-7"
       inkscape:connector-curvature="0" />
    <text
       xml:space="preserve"
       style="font-size:14.98679829px;font-style:normal;font-variant:normal;font-weight:normal;font-stretch:normal;text-align:start;line-height:125%;letter-spacing:0px;word-spacing:0px;writing-mode:lr-tb;text-anchor:start;fill:#000000;fill-opacity:1;stroke:none;font-family:Source Code Pro;-inkscape-font-specification:Source Code Pro"
       x="320"
       y="175"
       id="text9822-8-1-7"
       sodipodi:linespacing="125%"><tspan
         sodipodi:role="line"
         id="tspan9824-9-2-9"
         x="320"
         y="175">E</tspan></text>
    <path
       transform="matrix(0.05204759,0,0,0.04163808,271.26287,123.67581)"
       d="m 440,220 a 80,100 0 1 1 -160,0 80,100 0 1 1 160,0 z"
       sodipodi:ry="100"
       sodipodi:rx="80"
       sodipodi:cy="220"
       sodipodi:cx="360"
       id="path3795-9-8-1-3"
       style="fill:#000000;fill-opacity:1;stroke:none;display:inline"
       sodipodi:type="arc" />
    <path
       inkscape:connector-curvature="0"
       style="fill:#000000;fill-opacity:1;fill-rule:nonzero;stroke:none"
       d="M 321.8125,140.8125 C 322.52267,142.34743 323,145.88558 323,150 c 0,5.52285 -0.89543,10 -2,10 l 8,0 c -1.10457,0 -2,-4.47715 -2,-10 0,-4.11442 0.47733,-7.65257 1.1875,-9.1875 C 327.14176,140.93355 326.06941,141 325,141 c -1.06941,0 -2.14176,-0.0665 -3.1875,-0.1875 z"
       id="rect9726-5-7-2-5-2-8" />
    <path
       style="fill:#000000;fill-opacity:1;fill-rule:nonzero;stroke:none"
       d="M 312.8125,137.1875 C 316.61862,139.01301 320.72234,140 325,140 c 4.27766,0 8.38138,-0.98699 12.1875,-2.8125 C 333.22631,137.71853 329.15711,138 325,138 c -4.15711,0 -8.22631,-0.28147 -12.1875,-0.8125 z"
       id="path11783-4-7-6"
       inkscape:connector-curvature="0" />
    <path
       transform="matrix(0.05204759,0,0,0.04163808,306.26287,120.67581)"
       d="m 440,220 a 80,100 0 1 1 -160,0 80,100 0 1 1 160,0 z"
       sodipodi:ry="100"
       sodipodi:rx="80"
       sodipodi:cy="220"
       sodipodi:cx="360"
       id="path3795-9-1-0"
       style="fill:#000000;fill-opacity:1;stroke:none;display:inline"
       sodipodi:type="arc" />
    <path
       inkscape:connector-curvature="0"
       id="path3790-40-1-1-2"
       d="m 321.23485,127.93265 c -0.95801,0.96138 -1.55035,2.28739 -1.55035,3.75185 0,2.93567 2.37983,5.3155 5.3155,5.3155 2.93566,0 5.31549,-2.37983 5.31549,-5.3155 0,-1.46446 -0.59233,-2.79047 -1.55035,-3.75185 0.42119,0.67785 0.66444,1.47762 0.66444,2.33439 0,2.44639 -1.98319,4.42958 -4.42958,4.42958 -2.44639,0 -4.42958,-1.98319 -4.42958,-4.42958 0,-0.85677 0.24324,-1.65654 0.66444,-2.33439 z"
       style="fill:#000000;fill-opacity:1;stroke:none;display:inline" />
    <path
       style="fill:#000000;fill-opacity:1;fill-rule:nonzero;stroke:none"
       d="m 181.84375,140.93751 c 0.68577,1.58546 1.15625,5.03666 1.15625,9.0625 0,5.52285 -0.89543,10 -2,10 l 8,0 c -1.10457,0 -2,-4.47715 -2,-10 0,-4.02584 0.47048,-7.47704 1.15625,-9.0625 -0.33808,0.2572 -0.69972,0.48959 -1.09375,0.65625 -0.63594,0.26898 -1.32859,0.40625 -2.0625,0.40625 -0.73392,0 -1.42656,-0.13727 -2.0625,-0.40625 -0.39403,-0.16666 -0.75567,-0.39905 -1.09375,-0.65625 z"
       id="path9789"
       inkscape:connector-curvature="0" />
    <path
       style="fill:#000000;fill-opacity:1;fill-rule:nonzero;stroke:none"
       d="m 91,140 c 1.10457,0 2,4.47715 2,10 0,5.52285 -0.89543,10 -2,10 l 8,0 c -1.10457,0 -2,-4.47715 -2,-10 0,-5.52285 0.89543,-10 2,-10 l -8,0 z"
       id="rect9726-5-7-2-3-1-9"
       inkscape:connector-curvature="0" />
    <path
       inkscape:connector-curvature="0"
       style="fill:#000000;fill-opacity:1;fill-rule:nonzero;stroke:none"
       d="M 216.78125,140.78125 C 217.49908,142.29933 218,145.85786 218,150 c 0,5.52285 -0.89543,10 -2,10 l 8,0 c -1.10457,0 -2,-4.47715 -2,-10 0,-4.14214 0.50092,-7.70067 1.21875,-9.21875 C 222.16678,140.92403 221.08767,141 220,141 c -1.08766,0 -2.16678,-0.076 -3.21875,-0.21875 z"
       id="rect9726-5-7-2-3-1-6" />
    <path
       style="fill:#000000;fill-opacity:1;fill-rule:nonzero;stroke:none"
       d="M 205.6875,135.28125 C 209.79439,138.25787 214.70797,140 220,140 c 5.29202,0 10.20561,-1.74213 14.3125,-4.71875 C 230.03062,137.00993 225.16333,138 220,138 c -5.16332,0 -10.03062,-0.99007 -14.3125,-2.71875 z"
       id="path12452-4-3"
       inkscape:connector-curvature="0"
       sodipodi:nodetypes="cscsc" />
    <path
       inkscape:connector-curvature="0"
       style="fill:#000000;fill-opacity:1;fill-rule:nonzero;stroke:none"
       d="M 251.78125,140.78125 C 252.49908,142.29933 253,145.85786 253,150 c 0,5.52285 -0.89543,10 -2,10 l 8,0 c -1.10457,0 -2,-4.47715 -2,-10 0,-4.14214 0.50092,-7.70067 1.21875,-9.21875 C 257.16677,140.92403 256.08766,141 255,141 c -1.08766,0 -2.16678,-0.076 -3.21875,-0.21875 z"
       id="rect9726-5-7-2-3-1-7" />
    <path
       style="fill:#000000;fill-opacity:1;fill-rule:nonzero;stroke:none"
       d="M 240.6875,135.28125 C 244.79439,138.25787 249.70797,140 255,140 c 5.29202,0 10.20561,-1.74213 14.3125,-4.71875 C 265.03062,137.00993 260.16332,138 255,138 c -5.16332,0 -10.03062,-0.99007 -14.3125,-2.71875 z"
       id="path12452-4-8"
       inkscape:connector-curvature="0"
       sodipodi:nodetypes="cscsc" />
    <path
       transform="matrix(0.05204759,0,0,0.04163808,236.26287,120.67581)"
       d="m 440,220 a 80,100 0 1 1 -160,0 80,100 0 1 1 160,0 z"
       sodipodi:ry="100"
       sodipodi:rx="80"
       sodipodi:cy="220"
       sodipodi:cx="360"
       id="path3795-9-8"
       style="fill:#000000;fill-opacity:1;stroke:none;display:inline"
       sodipodi:type="arc" />
    <path
       inkscape:connector-curvature="0"
       id="path3790-40-1-2"
       d="m 251.23485,127.93265 c -0.95801,0.96138 -1.55035,2.28739 -1.55035,3.75185 0,2.93567 2.37983,5.3155 5.3155,5.3155 2.93566,0 5.31549,-2.37983 5.31549,-5.3155 0,-1.46446 -0.59233,-2.79047 -1.55035,-3.75185 0.42119,0.67785 0.66444,1.47762 0.66444,2.33439 0,2.44639 -1.98319,4.42958 -4.42958,4.42958 -2.44639,0 -4.42958,-1.98319 -4.42958,-4.42958 0,-0.85677 0.24324,-1.65654 0.66444,-2.33439 z"
       style="fill:#000000;fill-opacity:1;stroke:none;display:inline" />
    <path
       transform="matrix(0.05204759,0,0,0.04163808,201.26287,123.67581)"
       d="m 440,220 a 80,100 0 1 1 -160,0 80,100 0 1 1 160,0 z"
       sodipodi:ry="100"
       sodipodi:rx="80"
       sodipodi:cy="220"
       sodipodi:cx="360"
       id="path3795-9-8-9"
       style="fill:#000000;fill-opacity:1;stroke:none;display:inline"
       sodipodi:type="arc" />
    <path
       inkscape:connector-curvature="0"
       style="fill:#000000;fill-opacity:1;fill-rule:nonzero;stroke:none"
       d="m 182.125,197.6875 c 0.53728,1.79287 0.875,4.84043 0.875,8.3125 0,5.52285 -0.89543,10 -2,10 l 8,0 c -1.10457,0 -2,-4.47715 -2,-10 0,-3.47207 0.33772,-6.51963 0.875,-8.3125 C 186.95128,197.89575 185.98663,198 185,198 c -0.98664,0 -1.95128,-0.10425 -2.875,-0.3125 z"
       id="rect9726-5-7-2-3-1-9-1-9" />
    <path
       style="fill:#000000;fill-opacity:1;fill-rule:nonzero;stroke:none"
       d="M 172.15625,181 C 172.05607,181.65041 172,182.32155 172,183 c 0,7.1797 5.8203,13 13,13 7.1797,0 13,-5.8203 13,-13 0,-0.67845 -0.0561,-1.34959 -0.15625,-2 -0.95998,6.23254 -6.3425,11 -12.84375,11 -6.50125,0 -11.88377,-4.76746 -12.84375,-11 z"
       id="path3051-4"
       inkscape:connector-curvature="0" />
    <path
       transform="matrix(0.05,0,0,0.04,167,177.2)"
       d="m 440,220 a 80,100 0 1 1 -160,0 80,100 0 1 1 160,0 z"
       sodipodi:ry="100"
       sodipodi:rx="80"
       sodipodi:cy="220"
       sodipodi:cx="360"
       id="path3795-9-0-8"
       style="fill:#000000;fill-opacity:1;stroke:none;display:inline"
       sodipodi:type="arc" />
    <path
       style="fill:#000000;fill-opacity:1;fill-rule:nonzero;stroke:none"
       d="M 72.03125 141.4375 C 72.61712 143.18139 73 146.34334 73 150 C 73 155.52285 72.10457 160 71 160 L 79 160 C 77.89543 160 77 155.52285 77 150 C 77 146.34334 77.38288 143.18139 77.96875 141.4375 C 77.053029 141.8025 76.045889 142 75 142 C 73.954111 142 72.946971 141.8025 72.03125 141.4375 z "
       id="rect9726-5-7-2-3-1-9-2" />
    <path
       inkscape:connector-curvature="0"
       style="fill:#000000;fill-opacity:1;fill-rule:nonzero;stroke:none"
       d="M 74.1875,124.03125 C 70.153452,124.44093 67,127.85786 67,132 c 0,4.41828 3.581723,8 8,8 4.418277,0 8,-3.58172 8,-8 0,-4.20577 -3.251882,-7.64682 -7.375,-7.96875 C 78.650536,124.33851 81,126.8934 81,130 c 0,3.31371 -2.686292,6 -6,6 -3.313708,0 -6,-2.68629 -6,-6 0,-3.1066 2.349464,-5.66149 5.375,-5.96875 -0.06238,0.005 -0.125529,-0.006 -0.1875,0 z"
       id="path3938-5" />
    <path
       sodipodi:type="arc"
       style="fill:#000000;fill-opacity:1;fill-rule:nonzero;stroke:none"
       id="path3982"
       sodipodi:cx="75.5"
       sodipodi:cy="130"
       sodipodi:rx="2.5"
       sodipodi:ry="3"
       d="m 78,130 a 2.5,3 0 1 1 -5,0 2.5,3 0 1 1 5,0 z"
       transform="matrix(1.6,0,0,1.3333333,-45.8,-44.333329)" />
    <rect
       style="fill:#808080;fill-opacity:0.50196078;stroke:none;display:inline"
       id="rect12148-8-8-9-5"
       width="30"
       height="36"
       x="205"
       y="179.99998" />
    <path
       inkscape:connector-curvature="0"
       style="fill:#000000;fill-opacity:1;fill-rule:nonzero;stroke:none"
       d="M 217.03125,197.4375 C 217.61712,199.18139 218,202.34334 218,206 c 0,5.52285 -0.89543,10 -2,10 l 8,0 c -1.10457,0 -2,-4.47715 -2,-10 0,-3.65666 0.38288,-6.81861 0.96875,-8.5625 C 222.05303,197.8025 221.04589,198 220,198 c -1.04589,0 -2.05303,-0.1975 -2.96875,-0.5625 z"
       id="rect9726-5-7-2-3-1-9-2-1" />
    <path
       inkscape:connector-curvature="0"
       style="fill:#000000;fill-opacity:1;fill-rule:nonzero;stroke:none"
       d="M 219.1875,180.03125 C 215.15345,180.44093 212,183.85786 212,188 c 0,4.41828 3.58172,8 8,8 4.41828,0 8,-3.58172 8,-8 0,-4.20577 -3.25188,-7.64682 -7.375,-7.96875 3.02554,0.30726 5.375,2.86215 5.375,5.96875 0,3.31371 -2.68629,6 -6,6 -3.31371,0 -6,-2.68629 -6,-6 0,-3.1066 2.34946,-5.66149 5.375,-5.96875 -0.0624,0.005 -0.12553,-0.006 -0.1875,0 z"
       id="path3938-5-7" />
    <path
       sodipodi:type="arc"
       style="fill:#000000;fill-opacity:1;fill-rule:nonzero;stroke:none"
       id="path3982-1"
       sodipodi:cx="75.5"
       sodipodi:cy="130"
       sodipodi:rx="2.5"
       sodipodi:ry="3"
       d="m 78,130 a 2.5,3 0 1 1 -5,0 2.5,3 0 1 1 5,0 z"
       transform="matrix(1.6,0,0,1.3333333,99.2,11.666668)" />
  </g>
</svg>
